<?xml version="1.0" encoding="utf-8"?>
<!-- Generator: Adobe Illustrator 19.0.0, SVG Export Plug-In . SVG Version: 6.00 Build 0)  -->
<svg version="1.1" id="icons__x28_128_x__x_128_x29_"
	 xmlns="http://www.w3.org/2000/svg" xmlns:xlink="http://www.w3.org/1999/xlink" x="0px" y="0px" width="136px" height="136px"
	 viewBox="0 0 136 136" style="enable-background:new 0 0 136 136;" xml:space="preserve">
<g>
	<g>
		<rect x="108" y="8" style="fill:#453F3C;" width="12" height="120"/>
		<rect x="112" y="12" style="fill:#7A6862;" width="4" height="112"/>
		<rect x="112" y="12" style="opacity:0.14;" width="2" height="112"/>
		<rect x="114" y="12" style="mix-blend-mode:overlay;opacity:0.24;fill:#FFFFFF;" width="2" height="2"/>
		<rect x="114" y="122" style="opacity:0.14;" width="2" height="2"/>
	</g>
	<g>
		<rect x="22" y="4" style="fill:#453F3C;" width="90" height="128"/>
		<rect x="26" y="8" style="fill:#F7F7F7;" width="82" height="120"/>
		<rect x="26" y="8" style="mix-blend-mode:overlay;opacity:0.8;fill:#FFFFFF;" width="82" height="2"/>
		<rect x="26" y="126" style="opacity:0.14;" width="82" height="2"/>
		<g>
			<rect x="77" y="10" style="mix-blend-mode:overlay;opacity:0.8;fill:#FFFFFF;" width="2" height="116"/>
			<rect x="81" y="10" style="mix-blend-mode:overlay;opacity:0.8;fill:#FFFFFF;" width="1" height="116"/>
		</g>
		<g>
			<path style="opacity:0.14;" d="M26,22h5c1.7,0,3,1.3,3,3s-1.3,3-3,3h-5V22z"/>
			<path style="opacity:0.14;" d="M26,40h5c1.7,0,3,1.3,3,3s-1.3,3-3,3h-5V40z"/>
			<path style="opacity:0.14;" d="M26,58h5c1.7,0,3,1.3,3,3s-1.3,3-3,3h-5V58z"/>
			<path style="opacity:0.14;" d="M26,76h5c1.7,0,3,1.3,3,3s-1.3,3-3,3h-5V76z"/>
			<path style="opacity:0.14;" d="M26,94h5c1.7,0,3,1.3,3,3s-1.3,3-3,3h-5V94z"/>
			<path style="opacity:0.14;" d="M26,112h5c1.7,0,3,1.3,3,3s-1.3,3-3,3h-5V112z"/>
			<g>
				<circle style="fill:#453F3C;" cx="31" cy="41" r="4"/>
				<g>
					<path style="fill:#453F3C;" d="M19,44c-1.7,0-3-1.3-3-3s1.3-3,3-3h12c1.7,0,3,1.3,3,3s-1.3,3-3,3H19z"/>
					<path style="fill:#686360;" d="M31,42H19c-0.5,0-1-0.5-1-1l0,0c0-0.5,0.4-1,1-1h12c0.5,0,1,0.5,1,1l0,0C32,41.5,31.6,42,31,42z
						"/>
					<g>
						<defs>
							<path id="SVGID_1_" d="M31,42H19c-0.5,0-1-0.5-1-1l0,0c0-0.5,0.4-1,1-1h12c0.5,0,1,0.5,1,1l0,0C32,41.5,31.6,42,31,42z"/>
						</defs>
						<clipPath id="SVGID_2_">
							<use xlink:href="#SVGID_1_"  style="overflow:visible;"/>
						</clipPath>
						<rect x="16" y="38" style="mix-blend-mode:overlay;opacity:0.14;clip-path:url(#SVGID_2_);fill:#FFFFFF;" width="18" height="3"/>
					</g>
					<g>
						<rect x="23" y="41" style="mix-blend-mode:overlay;opacity:0.14;fill:#FFFFFF;" width="2" height="1"/>
						<rect x="27" y="41" style="mix-blend-mode:overlay;opacity:0.14;fill:#FFFFFF;" width="1" height="1"/>
					</g>
				</g>
			</g>
			<g>
				<circle style="fill:#453F3C;" cx="31" cy="59" r="4"/>
				<g>
					<path style="fill:#453F3C;" d="M19,62c-1.7,0-3-1.3-3-3s1.3-3,3-3h12c1.7,0,3,1.3,3,3s-1.3,3-3,3H19z"/>
					<path style="fill:#686360;" d="M31,60H19c-0.5,0-1-0.5-1-1l0,0c0-0.5,0.4-1,1-1h12c0.5,0,1,0.5,1,1l0,0C32,59.5,31.6,60,31,60z
						"/>
					<g>
						<defs>
							<path id="SVGID_3_" d="M31,60H19c-0.5,0-1-0.5-1-1l0,0c0-0.5,0.4-1,1-1h12c0.5,0,1,0.5,1,1l0,0C32,59.5,31.6,60,31,60z"/>
						</defs>
						<clipPath id="SVGID_4_">
							<use xlink:href="#SVGID_3_"  style="overflow:visible;"/>
						</clipPath>
						<rect x="16" y="56" style="mix-blend-mode:overlay;opacity:0.14;clip-path:url(#SVGID_4_);fill:#FFFFFF;" width="18" height="3"/>
					</g>
					<g>
						<rect x="23" y="59" style="mix-blend-mode:overlay;opacity:0.14;fill:#FFFFFF;" width="2" height="1"/>
						<rect x="27" y="59" style="mix-blend-mode:overlay;opacity:0.14;fill:#FFFFFF;" width="1" height="1"/>
					</g>
				</g>
			</g>
			<g>
				<circle style="fill:#453F3C;" cx="31" cy="77" r="4"/>
				<g>
					<path style="fill:#453F3C;" d="M19,80c-1.7,0-3-1.3-3-3s1.3-3,3-3h12c1.7,0,3,1.3,3,3s-1.3,3-3,3H19z"/>
					<path style="fill:#686360;" d="M31,78H19c-0.5,0-1-0.4-1-1l0,0c0-0.6,0.4-1,1-1h12c0.5,0,1,0.4,1,1l0,0C32,77.6,31.6,78,31,78z
						"/>
					<g>
						<defs>
							<path id="SVGID_5_" d="M31,78H19c-0.5,0-1-0.4-1-1l0,0c0-0.6,0.4-1,1-1h12c0.5,0,1,0.4,1,1l0,0C32,77.6,31.6,78,31,78z"/>
						</defs>
						<clipPath id="SVGID_6_">
							<use xlink:href="#SVGID_5_"  style="overflow:visible;"/>
						</clipPath>
						<rect x="16" y="74" style="mix-blend-mode:overlay;opacity:0.14;clip-path:url(#SVGID_6_);fill:#FFFFFF;" width="18" height="3"/>
					</g>
					<g>
						<rect x="23" y="77" style="mix-blend-mode:overlay;opacity:0.14;fill:#FFFFFF;" width="2" height="1"/>
						<rect x="27" y="77" style="mix-blend-mode:overlay;opacity:0.14;fill:#FFFFFF;" width="1" height="1"/>
					</g>
				</g>
			</g>
			<g>
				<circle style="fill:#453F3C;" cx="31" cy="95" r="4"/>
				<g>
					<path style="fill:#453F3C;" d="M19,98c-1.7,0-3-1.3-3-3s1.3-3,3-3h12c1.7,0,3,1.3,3,3s-1.3,3-3,3H19z"/>
					<path style="fill:#686360;" d="M31,96H19c-0.5,0-1-0.4-1-1l0,0c0-0.6,0.4-1,1-1h12c0.5,0,1,0.4,1,1l0,0C32,95.6,31.6,96,31,96z
						"/>
					<g>
						<defs>
							<path id="SVGID_7_" d="M31,96H19c-0.5,0-1-0.4-1-1l0,0c0-0.6,0.4-1,1-1h12c0.5,0,1,0.4,1,1l0,0C32,95.6,31.6,96,31,96z"/>
						</defs>
						<clipPath id="SVGID_8_">
							<use xlink:href="#SVGID_7_"  style="overflow:visible;"/>
						</clipPath>
						<rect x="16" y="92" style="opacity:0.14;clip-path:url(#SVGID_8_);fill:#FFFFFF;" width="18" height="3"/>
					</g>
					<g>
						<rect x="23" y="95" style="opacity:0.14;fill:#FFFFFF;" width="2" height="1"/>
						<rect x="27" y="95" style="opacity:0.14;fill:#FFFFFF;" width="1" height="1"/>
					</g>
				</g>
			</g>
			<g>
				<circle style="fill:#453F3C;" cx="31" cy="113" r="4"/>
				<g>
					<path style="fill:#453F3C;" d="M19,116c-1.7,0-3-1.3-3-3s1.3-3,3-3h12c1.7,0,3,1.3,3,3s-1.3,3-3,3H19z"/>
					<path style="fill:#686360;" d="M31,114H19c-0.5,0-1-0.4-1-1l0,0c0-0.6,0.4-1,1-1h12c0.5,0,1,0.4,1,1l0,0
						C32,113.6,31.6,114,31,114z"/>
					<g>
						<defs>
							<path id="SVGID_9_" d="M31,114H19c-0.5,0-1-0.4-1-1l0,0c0-0.6,0.4-1,1-1h12c0.5,0,1,0.4,1,1l0,0C32,113.6,31.6,114,31,114z"
								/>
						</defs>
						<clipPath id="SVGID_10_">
							<use xlink:href="#SVGID_9_"  style="overflow:visible;"/>
						</clipPath>
						<rect x="16" y="110" style="opacity:0.14;clip-path:url(#SVGID_10_);fill:#FFFFFF;" width="18" height="3"/>
					</g>
					<g>
						<rect x="23" y="113" style="opacity:0.14;fill:#FFFFFF;" width="2" height="1"/>
						<rect x="27" y="113" style="opacity:0.14;fill:#FFFFFF;" width="1" height="1"/>
					</g>
				</g>
			</g>
			<g>
				<circle style="fill:#453F3C;" cx="31" cy="23" r="4"/>
				<g>
					<path style="fill:#453F3C;" d="M19,26c-1.7,0-3-1.3-3-3s1.3-3,3-3h12c1.7,0,3,1.3,3,3s-1.3,3-3,3H19z"/>
					<path style="fill:#686360;" d="M31,24H19c-0.5,0-1-0.4-1-1v0c0-0.5,0.4-1,1-1h12c0.5,0,1,0.4,1,1v0C32,23.6,31.6,24,31,24z"/>
					<g>
						<defs>
							<path id="SVGID_11_" d="M31,24H19c-0.5,0-1-0.4-1-1v0c0-0.5,0.4-1,1-1h12c0.5,0,1,0.4,1,1v0C32,23.6,31.6,24,31,24z"/>
						</defs>
						<clipPath id="SVGID_12_">
							<use xlink:href="#SVGID_11_"  style="overflow:visible;"/>
						</clipPath>
						<rect x="16" y="20" style="opacity:0.14;clip-path:url(#SVGID_12_);fill:#FFFFFF;" width="18" height="3"/>
					</g>
					<g>
						<rect x="23" y="23" style="opacity:0.14;fill:#FFFFFF;" width="2" height="1"/>
						<rect x="27" y="23" style="opacity:0.14;fill:#FFFFFF;" width="1" height="1"/>
					</g>
				</g>
			</g>
		</g>
		<g>
			<rect x="39" y="25" style="fill:#453F3C;" width="60" height="2"/>
			<rect x="39" y="37" style="fill:#453F3C;" width="60" height="2"/>
			<rect x="39" y="49" style="fill:#453F3C;" width="60" height="2"/>
			<rect x="39" y="61" style="fill:#453F3C;" width="60" height="2"/>
			<rect x="39" y="73" style="fill:#453F3C;" width="60" height="2"/>
			<rect x="39" y="85" style="fill:#453F3C;" width="60" height="2"/>
			<rect x="39" y="97" style="fill:#453F3C;" width="60" height="2"/>
			<rect x="39" y="109" style="fill:#453F3C;" width="60" height="2"/>
		</g>
	</g>
</g>
</svg>
