<?xml version="1.0" encoding="iso-8859-1"?>
<!-- Generator: Adobe Illustrator 19.0.0, SVG Export Plug-In . SVG Version: 6.00 Build 0)  -->
<svg version="1.1" id="Layer_1" xmlns="http://www.w3.org/2000/svg" xmlns:xlink="http://www.w3.org/1999/xlink" x="0px" y="0px"
	 viewBox="0 0 512 512" style="enable-background:new 0 0 512 512;" xml:space="preserve">
<rect style="fill:#E6E5E5;" width="512" height="512"/>
<path style="fill:#2B4457;" d="M340.188,360.904c0,11.505-4.388,23.007-13.164,31.788c-8.778,8.778-20.285,13.164-31.793,13.164
	H152.873V106.145h142.359c11.507,0,23.014,4.39,31.793,13.166c8.776,8.781,13.164,20.293,13.164,31.79V360.904z"/>
<rect x="152.873" y="211.2" style="fill:#FFFFFF;" width="187.315" height="89.587"/>
<g>
	<rect x="201.754" y="236.928" style="fill:#21D8DE;" width="89.58" height="5.373"/>
	<rect x="201.754" y="253.312" style="fill:#21D8DE;" width="89.58" height="5.373"/>
	<rect x="201.754" y="269.696" style="fill:#21D8DE;" width="44.79" height="5.368"/>
</g>
<rect x="124.186" y="106.145" style="fill:#213546;" width="28.687" height="299.699"/>
<rect x="167.322" y="106.145" style="fill:#FF6D3B;" width="11.732" height="299.699"/>
<g>
	<rect x="366.72" y="225.27" style="fill:#213546;" width="15.544" height="159.872"/>
	<rect x="366.72" y="390.323" style="fill:#213546;" width="15.544" height="15.542"/>
</g>
<polygon style="fill:#2B4457;" points="376.346,204.731 372.654,204.731 366.728,225.27 382.272,225.27 "/>
<g>
	<polygon style="fill:#FFFFFF;" points="374.851,200.689 374.154,200.689 373.041,204.731 375.959,204.731 	"/>
	<rect x="368.205" y="385.126" style="fill:#FFFFFF;" width="12.577" height="5.179"/>
</g>
<polygon style="fill:#2B4457;" points="385.974,370.959 382.272,368.773 382.272,383.578 385.974,383.578 "/>
<rect x="385.971" y="318.541" style="fill:#213546;" width="1.838" height="66.586"/>
<path style="fill:#2B4457;" d="M385.974,328.3v-5.962c-1.288,0.394-2.227,1.572-2.227,2.98
	C383.747,326.723,384.689,327.918,385.974,328.3z"/>
<rect x="366.72" y="291.021" style="fill:#FFFFFF;" width="15.544" height="1.935"/>
<g>
</g>
<g>
</g>
<g>
</g>
<g>
</g>
<g>
</g>
<g>
</g>
<g>
</g>
<g>
</g>
<g>
</g>
<g>
</g>
<g>
</g>
<g>
</g>
<g>
</g>
<g>
</g>
<g>
</g>
</svg>
